<?xml version="1.0" encoding="UTF-8"?>
<!DOCTYPE svg PUBLIC "-//W3C//DTD SVG 1.1//EN" "http://www.w3.org/Graphics/SVG/1.1/DTD/svg11.dtd">
<!-- Creator: CorelDRAW 2020 (64-Bit) -->
<svg xmlns="http://www.w3.org/2000/svg" xml:space="preserve" width="81.1995mm" height="79.9724mm" version="1.1" style="shape-rendering:geometricPrecision; text-rendering:geometricPrecision; image-rendering:optimizeQuality; fill-rule:evenodd; clip-rule:evenodd"
viewBox="0 0 8105.72 7983.23"
 xmlns:xlink="http://www.w3.org/1999/xlink"
 xmlns:xodm="http://www.corel.com/coreldraw/odm/2003">
 <defs>
  <style type="text/css">
   <![CDATA[
    .fil1 {fill:#FEFEFE}
    .fil0 {fill:#2B2A29}
    .fil4 {fill:#E62F39}
    .fil2 {fill:#FEFEFE;fill-rule:nonzero}
    .fil5 {fill:#2B2A29;fill-rule:nonzero}
    .fil3 {fill:#2B2A29;fill-rule:nonzero}
   ]]>
  </style>
 </defs>
 <g id="Layer_x0020_1">
  <metadata id="CorelCorpID_0Corel-Layer"/>
  <g id="_984057184">
   <path class="fil0" d="M783.89 3707.01l6537.95 0c431.14,0 783.88,352.74 783.88,783.88l0 2708.45c0,431.14 -352.74,783.88 -783.88,783.88l-6537.95 0c-431.15,0 -783.89,-352.74 -783.89,-783.88l0 -2708.45c0,-431.14 352.74,-783.88 783.89,-783.88z"/>
   <g>
    <path class="fil1" d="M3946.81 4609.02l2899.03 0c256.51,0 466.38,209.86 466.38,466.38l0 1637.5c0,202.57 -165.74,368.31 -368.31,368.31l-2997.1 0c-256.5,0 -466.36,-209.86 -466.36,-466.38l0 -1539.43c0,-256.52 209.86,-466.38 466.36,-466.38z"/>
    <polygon class="fil2" points="2454.91,6826.18 2454.91,5198.77 2855.03,5198.77 2855.03,5818.19 3474.37,5818.19 4093.88,5818.19 4093.88,5198.77 4490.14,5198.77 4490.14,6826.18 4093.88,6826.18 4093.88,6141.36 3516.1,6141.36 2855.03,6141.36 2855.03,6826.18 "/>
    <polygon class="fil3" points="4493.98,6826.18 4493.98,5198.77 4093.88,5198.77 4093.88,5818.19 3486.52,5818.19 3480.45,5818.19 3480.45,6141.36 4093.88,6141.36 4093.88,6826.18 "/>
    <polygon class="fil2" points="2166.97,4962.98 2166.97,6826.18 1705.3,6826.18 1705.3,4962.98 793.49,4962.98 793.49,4609.03 3082.63,4609.03 3082.63,4962.98 "/>
    <polygon class="fil3" points="5643.74,6826.17 4658.83,5198.77 5108.33,5198.77 5797.63,6378.61 6447.81,5198.77 6859.48,5198.77 5916.25,6826.17 "/>
    <path class="fil4" d="M6724.81 6339.66l118.5 0c101.2,0 184,82.79 184,184l0 118.5c0,101.2 -82.79,184.01 -184,184.01l-118.5 0c-101.2,0 -184,-82.8 -184,-184.01l0 -118.5c0,-101.2 82.79,-184 184,-184z"/>
   </g>
  </g>
  <g id="_984060304">
   <path class="fil4" d="M3946.82 0l2899.02 0c256.52,0 466.38,209.85 466.38,466.37l0 1637.5c0,202.58 -165.74,368.31 -368.3,368.31l-2997.1 0c-256.5,0 -466.37,-209.86 -466.37,-466.38l0 -1539.43c0,-256.52 209.87,-466.37 466.37,-466.37z"/>
   <polygon class="fil5" points="2454.92,2217.15 2454.92,589.74 2855.03,589.74 2855.03,1209.16 3474.37,1209.16 4093.88,1209.16 4093.88,589.74 4490.15,589.74 4490.15,2217.15 4093.88,2217.15 4093.88,1532.33 3516.11,1532.33 2855.03,1532.33 2855.03,2217.15 "/>
   <polygon class="fil2" points="4493.99,2217.15 4493.99,589.74 4093.88,589.74 4093.88,1209.16 3486.53,1209.16 3480.45,1209.16 3480.45,1532.33 4093.88,1532.33 4093.88,2217.15 "/>
   <polygon class="fil5" points="2166.98,353.95 2166.98,2217.15 1705.31,2217.15 1705.31,353.95 793.5,353.95 793.5,0 3082.64,0 3082.64,353.95 "/>
   <polygon class="fil2" points="5643.74,2217.14 4658.83,589.74 5108.33,589.74 5797.63,1769.57 6447.81,589.74 6859.48,589.74 5916.25,2217.14 "/>
  </g>
  <path class="fil1" d="M6724.8 1730.64l118.5 0c101.2,0 184,82.79 184,184l0 118.5c0,101.2 -82.79,184 -184,184l-118.5 0c-101.2,0 -184,-82.79 -184,-184l0 -118.5c0,-101.2 82.79,-184 184,-184z"/>
 </g>
</svg>
